# xmcd
#
# Track frame offsets:
#	150
#	18620
#	36149
#	48416
#	75878
#	90904
#	107759
#	123353
#	142675
#	155430
#	171130
#	187874
#	198478
#	211205
#	227796
#	242592
#	260582
#	274581
#	289824
#	303071
#	319550
#	331216
#	346361
#
# Disc length: 4780 seconds
#
# Revision: 0
# Processed by: cddbd v1.5.2PL0 Copyright (c) Steve Scherf et al.
# Submitted via: EasyCDDAExtractor 8.0.1.2
#
DISCID=2b12aa17
DTITLE=Various Artist - Gospel Collection
DYEAR=1900
DGENRE=Gospel
TTITLE0=ett - Gospelmedley-Joybells
TTITLE1=tva - Gods been better than good to me
TTITLE2=tre - I Woke Up This Morning
TTITLE3=fyr - Hallelujah Salvation and Glory
TTITLE4=fem - Go Tell it On The Mountain
TTITLE5=sex - Ride on King Jesus
TTITLE6=sju - I'm a Believer
TTITLE7=atta - Nobody but You
TTITLE8=nio - Blessings are falling
TTITLE9=ti - We've come this far by faith
TTITLE10=elv - He has come
TTITLE11=Elvis - Milky White Way
TTITLE12=trett - Down to the River - Joybells
TTITLE13=fjort - Lean on me - psalm 4
TTITLE14=femt - Amazing Grace - Maverick
TTITLE15=sext - Hallelujah you're worthy
TTITLE16=Buddy Jewell - Leaning on the everlasting arms
TTITLE17=Live nu - Proud Mary
TTITLE18=Ocean - Put your hand in the hand
TTITLE19=tjug - I go to the rock
TTITLE20=EG W - We call on him
TTITLE21=EG W - Take my hand precious lord
TTITLE22=tjugtre - Oh Taste and See
EXTD=
EXTT0=
EXTT1=
EXTT2=
EXTT3=
EXTT4=
EXTT5=
EXTT6=
EXTT7=
EXTT8=
EXTT9=
EXTT10=
EXTT11=
EXTT12=
EXTT13=
EXTT14=
EXTT15=
EXTT16=
EXTT17=
EXTT18=
EXTT19=
EXTT20=
EXTT21=
EXTT22=
PLAYORDER=
